<svg width="22" height="18" viewBox="0 0 22 18" fill="none" xmlns="http://www.w3.org/2000/svg">
<path d="M13.998 0.913086C14.3079 0.91309 14.5545 1.17202 14.5547 1.48535V5.80078H14.5449C14.5267 5.92256 14.4721 6.03998 14.3779 6.13086L9.99902 10.3516V16.5146C9.99888 16.8279 9.75315 17.0868 9.44336 17.0869H6.02344C5.71353 17.0869 5.46694 16.828 5.4668 16.5146V10.3506L1.1123 6.15332V6.15234C0.990083 6.04679 0.913186 5.88915 0.913086 5.71387V1.48535C0.913225 1.17209 1.15894 0.913203 1.46875 0.913086H13.998ZM2.02441 5.46582L6.40234 9.6875C6.4965 9.77844 6.55116 9.896 6.56934 10.0176H6.5791V15.9424H8.8877V10.1045C8.8877 9.92633 8.96648 9.76626 9.0918 9.66113L13.4414 5.4668V2.05859H2.02441V5.46582ZM20.5312 13.8408C20.841 13.8409 21.0867 14.0999 21.0869 14.4131C21.0869 14.7265 20.8411 14.9862 20.5312 14.9863H13.1689C12.8595 14.9863 12.6133 14.7265 12.6133 14.4131C12.6135 14.0999 12.8596 13.8408 13.1689 13.8408H20.5312ZM20.5303 9.53223C20.8402 9.53223 21.0869 9.7916 21.0869 10.1045C21.0868 10.4179 20.8402 10.6768 20.5303 10.6768H14.4316C14.1219 10.6765 13.876 10.4177 13.876 10.1045C13.876 9.79105 14.122 9.53248 14.4316 9.53223H20.5303ZM20.5312 5.22266C20.841 5.22277 21.0867 5.48172 21.0869 5.79492C21.0869 6.10845 20.841 6.36707 20.5312 6.36719H17.7236C17.4137 6.36719 17.167 6.10781 17.167 5.79492C17.1672 5.48164 17.4138 5.22266 17.7236 5.22266H20.5312ZM20.5312 0.913086C20.8411 0.913203 21.0868 1.17209 21.0869 1.48535C21.0869 1.79888 20.841 2.0575 20.5312 2.05762H17.7236C17.4137 2.05762 17.167 1.79824 17.167 1.48535C17.1671 1.17202 17.4137 0.913086 17.7236 0.913086H20.5312Z" fill="#667085" stroke="#667085" stroke-width="0.174468"/>
</svg>
