<svg width="51" height="39" viewBox="0 0 51 39" fill="none" xmlns="http://www.w3.org/2000/svg">
<path d="M4.39655 39C3.12644 39 2.07615 38.5877 1.24569 37.7631C0.41523 36.9384 0 35.8955 0 34.6343V4.36567C0 3.10448 0.41523 2.06157 1.24569 1.23694C2.07615 0.412313 3.12644 0 4.39655 0H46.6035C47.8736 0 48.9239 0.412313 49.7543 1.23694C50.5848 2.06157 51 3.10448 51 4.36567V34.6343C51 35.8955 50.5848 36.9384 49.7543 37.7631C48.9239 38.5877 47.8736 39 46.6035 39H4.39655ZM25.5 19.0634L2.05172 3.63806V34.6343C2.05172 35.3134 2.27155 35.8713 2.71121 36.3078C3.15086 36.7444 3.71264 36.9627 4.39655 36.9627H46.6035C47.2874 36.9627 47.8491 36.7444 48.2888 36.3078C48.7285 35.8713 48.9483 35.3134 48.9483 34.6343V3.63806L25.5 19.0634ZM25.5 16.5896L47.7759 2.03731H3.22414L25.5 16.5896ZM2.05172 3.63806V2.03731V34.6343C2.05172 35.3134 2.27155 35.8713 2.71121 36.3078C3.15086 36.7444 3.71264 36.9627 4.39655 36.9627H2.05172V3.63806Z" fill="#5F6368"/>
</svg>
