<svg width="37" height="38" viewBox="0 0 37 38" fill="none" xmlns="http://www.w3.org/2000/svg">
<path d="M1.75419 22.263C1.0419 22.4738 0.583754 22.9821 0.586021 23.2012C0.587533 23.3483 0.387954 24.1347 1.73964 24.7041C3.21505 24.9874 4.64578 25.4674 5.99352 26.1312C7.03538 26.6753 8.02028 27.322 8.93355 28.0619C9.53031 28.5764 10.0988 29.1229 10.6364 29.6989C11.7508 30.9329 12.6406 32.3524 13.2654 33.8932C13.6096 34.7297 13.8905 35.5908 14.1057 36.4693C14.2334 36.9389 14.2866 37.049 14.3049 36.947C14.3138 36.8551 14.3381 36.7654 14.3769 36.6817C14.3657 36.5082 14.3371 36.3362 14.2913 36.1685C14.1535 35.1421 13.9631 34.1235 13.7207 33.1167C13.4315 31.993 12.9937 30.9131 12.4187 29.9053C12.2462 29.682 12.1055 29.4358 12.0006 29.1737C12.0184 29.1596 11.9713 29.0692 11.8012 28.8284C11.4844 28.4167 11.1439 28.0237 10.7815 27.6513C10.0097 26.873 9.15992 26.176 8.24552 25.5715C7.56365 25.1129 6.84594 24.71 6.09935 24.3668C5.65897 24.1544 5.20783 23.9651 4.74778 23.7996L4.40106 23.6658L4.33342 23.6439L4.19568 23.5994C4.1495 23.5731 4.06234 23.5948 4.05009 23.5309C4.10469 23.477 4.15323 23.5048 4.26701 23.4629L4.35652 23.4376L4.40153 23.4248L4.6289 23.3396C5.00302 23.1923 5.39432 23.0604 5.78032 22.8882C6.59329 22.5304 7.37846 22.1124 8.1293 21.6378C10.0727 20.4012 11.7345 18.7701 13.007 16.85C13.5801 15.987 14.0761 15.0751 14.4893 14.125L14.9527 12.9283L14.9977 12.7953C15.018 12.7219 15.0367 12.7309 15.0622 12.8768C14.9867 12.704 15.3451 13.6389 15.5342 14.1332C15.7974 14.6818 16.0112 15.2208 16.2936 15.6901C17.1146 17.1949 18.162 18.5646 19.3993 19.751C20.7238 21.0158 22.2499 22.0509 23.9147 22.8139C24.5478 23.1351 25.231 23.339 25.6135 23.4972L25.7407 23.5202L25.793 23.5123C25.8254 23.5067 25.8584 23.5058 25.8911 23.5095C25.9628 23.5005 25.9752 23.5807 25.9075 23.5771L25.7828 23.6179C25.6728 23.6579 25.8077 23.5984 25.1997 23.8356C24.2102 24.2029 23.2568 24.661 22.3517 25.204C20.4908 26.3038 18.8756 27.7742 17.6063 29.524C17.2472 29.9642 16.9568 30.456 16.7448 30.983C16.6054 31.3756 16.4369 31.7572 16.2408 32.1248C16.082 32.4106 15.9633 32.717 15.8881 33.0353C15.8126 33.4156 15.6953 33.7863 15.5384 34.1408C15.3481 34.6672 15.2334 35.2179 15.1978 35.7764C15.2006 35.9781 15.1892 36.1798 15.1638 36.3799C15.1526 36.5597 15.122 36.7378 15.0724 36.911C14.995 36.9551 14.9464 36.9221 14.8678 36.8982C14.7938 36.8835 14.6287 36.8587 14.4895 37.1401C14.5141 37.2332 14.5714 37.3144 14.651 37.3688C14.749 37.4455 14.8672 37.492 14.9912 37.5027C15.1152 37.5133 15.2396 37.4877 15.3492 37.4288C15.5026 37.3452 15.6168 37.2044 15.6671 37.0371L15.7474 36.7316L15.8981 36.1138C16.0845 35.3455 16.3476 34.5977 16.6833 33.8819C17.5132 31.9712 18.694 30.2331 20.1645 28.7576C21.7951 27.1794 23.7585 25.9866 25.9105 25.2665L26.1555 25.1811L26.601 25.0703L27.4893 24.8488C27.7702 24.7732 28.1261 24.7015 28.3622 24.6177C28.5 24.5256 29.4365 24.3858 29.4365 23.3747C29.4365 22.7119 28.674 22.5403 28.3003 22.369L26.651 21.9158C26.4938 21.8692 26.1995 21.8014 26.125 21.7642L25.8003 21.6349L25.0798 21.3487C23.4307 20.6122 21.9256 19.5886 20.6346 18.3257C19.7166 17.4348 18.9208 16.4261 18.268 15.326C17.9864 14.8522 17.731 14.3632 17.5031 13.8614C17.3671 13.5891 17.2479 13.3087 17.1464 13.0218L16.9773 12.5763L16.8908 12.3492L16.7657 11.8776C16.5903 11.2361 16.4198 10.4676 16.2276 9.88118C15.9433 9.35647 15.8716 8.96191 15.0226 8.96191C14.7339 9.00533 14.4625 9.12713 14.2382 9.31407C14.0138 9.50101 13.8451 9.74592 13.7503 10.0221L13.4466 11.1638L13.1659 12.2272C13.0809 12.5046 13.019 12.6204 12.9424 12.8314C12.2444 14.6775 11.1837 16.3651 9.82303 17.7948C8.91706 18.742 7.89298 19.5687 6.77601 20.2545C6.0457 20.6984 5.28149 21.0839 4.49049 21.4075L4.03123 21.5954L3.81493 21.6849L3.36963 21.8081L1.75419 22.263Z" fill="white"/>
<mask id="path-2-outside-1_2174_1215" maskUnits="userSpaceOnUse" x="12.3218" y="0.233398" width="25" height="22" fill="black">
<rect fill="white" x="12.3218" y="0.233398" width="25" height="22"/>
<path d="M19.7818 17.0534L20.1218 14.7934H26.8418L27.1818 17.0534H19.7818ZM23.4418 10.7734L21.3418 15.5934L21.4018 16.2334L19.5618 20.2334H16.3418L23.4418 5.4134L30.5418 20.2334H27.3018L25.5018 16.3534L25.5418 15.6334L23.4418 10.7734ZM31.7005 7.4734C31.7005 7.04673 31.8539 6.70006 32.1605 6.4334C32.4672 6.1534 32.8339 6.0134 33.2605 6.0134C33.6872 6.0134 34.0472 6.1534 34.3405 6.4334C34.6472 6.70006 34.8005 7.04673 34.8005 7.4734C34.8005 7.88673 34.6472 8.2334 34.3405 8.5134C34.0472 8.7934 33.6872 8.9334 33.2605 8.9334C32.8339 8.9334 32.4672 8.7934 32.1605 8.5134C31.8539 8.2334 31.7005 7.88673 31.7005 7.4734ZM31.9805 11.0334H34.5005V20.2334H31.9805V11.0334Z"/>
</mask>
<path d="M19.7818 17.0534L20.1218 14.7934H26.8418L27.1818 17.0534H19.7818ZM23.4418 10.7734L21.3418 15.5934L21.4018 16.2334L19.5618 20.2334H16.3418L23.4418 5.4134L30.5418 20.2334H27.3018L25.5018 16.3534L25.5418 15.6334L23.4418 10.7734ZM31.7005 7.4734C31.7005 7.04673 31.8539 6.70006 32.1605 6.4334C32.4672 6.1534 32.8339 6.0134 33.2605 6.0134C33.6872 6.0134 34.0472 6.1534 34.3405 6.4334C34.6472 6.70006 34.8005 7.04673 34.8005 7.4734C34.8005 7.88673 34.6472 8.2334 34.3405 8.5134C34.0472 8.7934 33.6872 8.9334 33.2605 8.9334C32.8339 8.9334 32.4672 8.7934 32.1605 8.5134C31.8539 8.2334 31.7005 7.88673 31.7005 7.4734ZM31.9805 11.0334H34.5005V20.2334H31.9805V11.0334Z" fill="#EA0056"/>
<path d="M19.7818 17.0534L17.804 16.7559L17.4584 19.0534H19.7818V17.0534ZM20.1218 14.7934V12.7934H18.4002L18.144 14.4959L20.1218 14.7934ZM26.8418 14.7934L28.8195 14.4959L28.5634 12.7934H26.8418V14.7934ZM27.1818 17.0534V19.0534H29.5052L29.1595 16.7559L27.1818 17.0534ZM23.4418 10.7734L25.2777 9.98009L23.4494 5.74875L21.6082 9.97456L23.4418 10.7734ZM21.3418 15.5934L19.5082 14.7946L19.3024 15.267L19.3505 15.7801L21.3418 15.5934ZM21.4018 16.2334L23.2188 17.0692L23.4432 16.5814L23.393 16.0467L21.4018 16.2334ZM19.5618 20.2334V22.2334H20.8432L21.3788 21.0692L19.5618 20.2334ZM16.3418 20.2334L14.5381 19.3693L13.1659 22.2334H16.3418V20.2334ZM23.4418 5.4134L25.2455 4.54928L23.4418 0.784392L21.6381 4.54928L23.4418 5.4134ZM30.5418 20.2334V22.2334H33.7176L32.3455 19.3693L30.5418 20.2334ZM27.3018 20.2334L25.4875 21.0751L26.0249 22.2334H27.3018V20.2334ZM25.5018 16.3534L23.5049 16.2425L23.4771 16.7416L23.6875 17.1951L25.5018 16.3534ZM25.5418 15.6334L27.5387 15.7443L27.5649 15.2732L27.3777 14.8401L25.5418 15.6334ZM19.7818 17.0534L21.7595 17.3509L22.0995 15.0909L20.1218 14.7934L18.144 14.4959L17.804 16.7559L19.7818 17.0534ZM20.1218 14.7934V16.7934H26.8418V14.7934V12.7934H20.1218V14.7934ZM26.8418 14.7934L24.864 15.0909L25.204 17.3509L27.1818 17.0534L29.1595 16.7559L28.8195 14.4959L26.8418 14.7934ZM27.1818 17.0534V15.0534H19.7818V17.0534V19.0534H27.1818V17.0534ZM23.4418 10.7734L21.6082 9.97456L19.5082 14.7946L21.3418 15.5934L23.1753 16.3922L25.2753 11.5722L23.4418 10.7734ZM21.3418 15.5934L19.3505 15.7801L19.4105 16.4201L21.4018 16.2334L23.393 16.0467L23.333 15.4067L21.3418 15.5934ZM21.4018 16.2334L19.5848 15.3976L17.7448 19.3976L19.5618 20.2334L21.3788 21.0692L23.2188 17.0692L21.4018 16.2334ZM19.5618 20.2334V18.2334H16.3418V20.2334V22.2334H19.5618V20.2334ZM16.3418 20.2334L18.1455 21.0975L25.2455 6.27751L23.4418 5.4134L21.6381 4.54928L14.5381 19.3693L16.3418 20.2334ZM23.4418 5.4134L21.6381 6.27751L28.7381 21.0975L30.5418 20.2334L32.3455 19.3693L25.2455 4.54928L23.4418 5.4134ZM30.5418 20.2334V18.2334H27.3018V20.2334V22.2334H30.5418V20.2334ZM27.3018 20.2334L29.1161 19.3917L27.3161 15.5117L25.5018 16.3534L23.6875 17.1951L25.4875 21.0751L27.3018 20.2334ZM25.5018 16.3534L27.4987 16.4643L27.5387 15.7443L25.5418 15.6334L23.5449 15.5225L23.5049 16.2425L25.5018 16.3534ZM25.5418 15.6334L27.3777 14.8401L25.2777 9.98009L23.4418 10.7734L21.6058 11.5667L23.7058 16.4267L25.5418 15.6334ZM32.1605 6.4334L33.4729 7.94261L33.4912 7.92671L33.5091 7.91037L32.1605 6.4334ZM34.3405 6.4334L32.9596 7.88011L32.9931 7.91215L33.0282 7.94261L34.3405 6.4334ZM34.3405 8.5134L32.992 7.03643L32.9756 7.05138L32.9596 7.06669L34.3405 8.5134ZM32.1605 8.5134L30.812 9.99037L30.812 9.99037L32.1605 8.5134ZM31.9805 11.0334V9.0334H29.9805V11.0334H31.9805ZM34.5005 11.0334H36.5005V9.0334H34.5005V11.0334ZM34.5005 20.2334V22.2334H36.5005V20.2334H34.5005ZM31.9805 20.2334H29.9805V22.2334H31.9805V20.2334ZM31.7005 7.4734H33.7005C33.7005 7.50367 33.694 7.59073 33.6446 7.70241C33.5941 7.81661 33.5248 7.89744 33.4729 7.94261L32.1605 6.4334L30.8482 4.92419C30.0805 5.59176 29.7005 6.50074 29.7005 7.4734H31.7005ZM32.1605 6.4334L33.5091 7.91037C33.488 7.9296 33.4434 7.96223 33.3789 7.98683C33.3154 8.0111 33.2697 8.0134 33.2605 8.0134V6.0134V4.0134C32.35 4.0134 31.4982 4.32989 30.812 4.95643L32.1605 6.4334ZM33.2605 6.0134V8.0134C33.2518 8.0134 33.1997 8.01122 33.1256 7.98241C33.0497 7.95288 32.9926 7.91163 32.9596 7.88011L34.3405 6.4334L35.7215 4.98669C35.0352 4.33161 34.1719 4.0134 33.2605 4.0134V6.0134ZM34.3405 6.4334L33.0282 7.94261C32.9762 7.89744 32.907 7.81661 32.8565 7.70241C32.8071 7.59073 32.8005 7.50367 32.8005 7.4734H34.8005H36.8005C36.8005 6.50074 36.4206 5.59176 35.6529 4.92419L34.3405 6.4334ZM34.8005 7.4734H32.8005C32.8005 7.42687 32.8106 7.33815 32.8565 7.23439C32.9023 7.13084 32.9603 7.06536 32.992 7.03643L34.3405 8.5134L35.6891 9.99037C36.4085 9.33346 36.8005 8.45171 36.8005 7.4734H34.8005ZM34.3405 8.5134L32.9596 7.06669C32.9926 7.03516 33.0497 6.99392 33.1256 6.96439C33.1997 6.93557 33.2518 6.9334 33.2605 6.9334V8.9334V10.9334C34.1719 10.9334 35.0352 10.6152 35.7215 9.96011L34.3405 8.5134ZM33.2605 8.9334V6.9334C33.2697 6.9334 33.3154 6.9357 33.3789 6.95996C33.4434 6.98457 33.488 7.01719 33.5091 7.03643L32.1605 8.5134L30.812 9.99037C31.4982 10.6169 32.35 10.9334 33.2605 10.9334V8.9334ZM32.1605 8.5134L33.5091 7.03643C33.5408 7.06536 33.5988 7.13084 33.6446 7.23439C33.6905 7.33816 33.7005 7.42687 33.7005 7.4734H31.7005H29.7005C29.7005 8.45171 30.0925 9.33346 30.812 9.99037L32.1605 8.5134ZM31.9805 11.0334V13.0334H34.5005V11.0334V9.0334H31.9805V11.0334ZM34.5005 11.0334H32.5005V20.2334H34.5005H36.5005V11.0334H34.5005ZM34.5005 20.2334V18.2334H31.9805V20.2334V22.2334H34.5005V20.2334ZM31.9805 20.2334H33.9805V11.0334H31.9805H29.9805V20.2334H31.9805Z" fill="#290411" mask="url(#path-2-outside-1_2174_1215)"/>
</svg>
